<svg width="168" height="44" viewBox="0 0 168 44" fill="none" xmlns="http://www.w3.org/2000/svg">
<path d="M63.167 18.6593C64.009 18.6593 64.7768 18.8021 65.4703 19.0877C66.1637 19.3566 66.7581 19.7346 67.2535 20.222C67.7651 20.7093 68.1536 21.2974 68.4176 21.9863C68.6985 22.6753 68.8386 23.4398 68.8386 24.28C68.8386 25.1034 68.6985 25.868 68.4176 26.5736C68.1366 27.2627 67.7488 27.8507 67.2535 28.338C66.7581 28.8254 66.1637 29.2117 65.4703 29.4975C64.7768 29.7663 64.009 29.9008 63.167 29.9008H55.5882V12.2571H67.303V16.5673H60.1702V18.6593H63.167ZM62.3001 25.9939C62.812 25.9939 63.2248 25.8343 63.5385 25.5151C63.8521 25.1789 64.009 24.7589 64.009 24.2548C64.009 23.7507 63.8521 23.339 63.5385 23.0198C63.2248 22.7005 62.812 22.5408 62.3001 22.5408H60.1702V25.9939H62.3001Z" fill="black"/>
<path d="M78.667 15.8223C79.6909 15.8223 80.6321 16.0072 81.4905 16.3768C82.3495 16.7297 83.084 17.2254 83.6948 17.864C84.3224 18.5025 84.8092 19.267 85.156 20.1577C85.5027 21.0482 85.676 22.0228 85.676 23.0814C85.676 24.14 85.5027 25.1146 85.156 26.0053C84.8092 26.8958 84.3224 27.6603 83.6948 28.2989C83.084 28.9374 82.3495 29.4415 81.4905 29.8111C80.6321 30.164 79.6909 30.3405 78.667 30.3405C78.0564 30.3405 77.4781 30.2564 76.9332 30.0885C76.3884 29.9372 75.8768 29.7187 75.3978 29.4331V34.8019H70.8654V16.276H73.986L74.5557 17.3599C75.1176 16.8725 75.7445 16.4945 76.4379 16.2256C77.1314 15.9568 77.8744 15.8223 78.667 15.8223ZM78.0479 26.2069C78.4774 26.2069 78.8736 26.1312 79.2366 25.98C79.6004 25.812 79.9139 25.5935 80.1777 25.3246C80.4588 25.039 80.6731 24.7113 80.8217 24.3417C80.9703 23.9551 81.0447 23.5351 81.0447 23.0814C81.0447 22.174 80.7644 21.4262 80.2026 20.8381C79.6414 20.2501 78.9232 19.956 78.0479 19.956C77.1733 19.956 76.4549 20.2501 75.8931 20.8381C75.3319 21.4262 75.051 22.174 75.051 23.0814C75.051 23.9888 75.3319 24.7365 75.8931 25.3246C76.4549 25.9129 77.1733 26.2069 78.0479 26.2069Z" fill="black"/>
<path d="M94.5106 30.3405C93.4209 30.3405 92.414 30.164 91.4891 29.8111C90.5812 29.4415 89.7886 28.9374 89.1114 28.2989C88.4513 27.6436 87.9311 26.879 87.5511 26.0053C87.1881 25.1146 87.0062 24.14 87.0062 23.0814C87.0062 22.0228 87.1881 21.0565 87.5511 20.1828C87.9311 19.2922 88.4513 18.5276 89.1114 17.8891C89.7886 17.2338 90.5812 16.7297 91.4891 16.3768C92.414 16.0072 93.4209 15.8223 94.5106 15.8223C95.6004 15.8223 96.5996 16.0072 97.5075 16.3768C98.4323 16.7297 99.2249 17.2338 99.8852 17.8891C100.562 18.5276 101.082 19.2922 101.445 20.1828C101.825 21.0565 102.015 22.0228 102.015 23.0814C102.015 24.14 101.825 25.1146 101.445 26.0053C101.082 26.879 100.562 27.6436 99.8852 28.2989C99.2249 28.9374 98.4323 29.4415 97.5075 29.8111C96.5996 30.164 95.6004 30.3405 94.5106 30.3405ZM94.5106 26.1312C95.3527 26.1312 96.0384 25.854 96.5663 25.2995C97.1112 24.7281 97.3837 23.9888 97.3837 23.0814C97.3837 22.174 97.1112 21.4431 96.5663 20.8886C96.0384 20.3173 95.3527 20.0316 94.5106 20.0316C93.6685 20.0316 92.975 20.3173 92.4303 20.8886C91.8854 21.4431 91.6129 22.174 91.6129 23.0814C91.6129 23.9888 91.8854 24.7281 92.4303 25.2995C92.975 25.854 93.6685 26.1312 94.5106 26.1312Z" fill="black"/>
<path d="M111.804 16.8626C112.778 16.8626 113.67 17.0222 114.479 17.3414C115.288 17.6607 115.982 18.1143 116.559 18.7025C117.138 19.2738 117.583 19.9628 117.897 20.7694C118.227 21.5758 118.392 22.4665 118.392 23.4411C118.392 24.4829 118.219 25.4323 117.872 26.2892C117.525 27.1294 117.03 27.852 116.386 28.4569C115.759 29.0619 114.991 29.5323 114.083 29.8683C113.191 30.1876 112.192 30.3473 111.086 30.3473C109.914 30.3473 108.857 30.1541 107.916 29.7675C106.991 29.3811 106.207 28.8265 105.563 28.1041C104.919 27.3646 104.423 26.4742 104.077 25.4323C103.747 24.3905 103.581 23.2059 103.581 21.8783C103.581 16.0644 106.149 12.5357 111.284 11.2922L116.237 10.0571V14.4177L111.284 15.6527C109.419 16.1064 108.296 16.9634 107.916 18.2237C109.104 17.3163 110.401 16.8626 111.804 16.8626ZM111.086 26.2892C111.895 26.2892 112.564 26.0205 113.092 25.4827C113.637 24.9281 113.909 24.2224 113.909 23.3655C113.909 22.5085 113.645 21.8112 113.117 21.2734C112.589 20.719 111.912 20.4416 111.086 20.4416C110.261 20.4416 109.583 20.719 109.055 21.2734C108.527 21.8112 108.262 22.5085 108.262 23.3655C108.262 24.2224 108.527 24.9281 109.055 25.4827C109.583 26.0205 110.261 26.2892 111.086 26.2892Z" fill="black"/>
<path d="M134.764 16.2649V29.8756H131.223L130.826 28.9179C130.265 29.3715 129.645 29.7244 128.97 29.9764C128.293 30.2285 127.565 30.3546 126.789 30.3546C125.765 30.3546 124.825 30.1781 123.967 29.8252C123.107 29.4556 122.364 28.9515 121.737 28.313C121.11 27.6576 120.623 26.8846 120.276 25.9941C119.929 25.1035 119.756 24.1288 119.756 23.0703C119.756 22.0117 119.929 21.0455 120.276 20.1717C120.623 19.2811 121.11 18.5166 121.737 17.8781C122.364 17.2395 123.107 16.7438 123.967 16.3909C124.825 16.038 125.765 15.8616 126.789 15.8616C127.582 15.8616 128.317 15.9876 128.994 16.2396C129.687 16.4917 130.315 16.853 130.877 17.3236L131.348 16.2649H134.764ZM127.409 26.1957C127.838 26.1957 128.235 26.1202 128.598 25.9689C128.961 25.8008 129.275 25.5824 129.539 25.3136C129.803 25.0278 130.01 24.7002 130.158 24.3305C130.306 23.944 130.382 23.5325 130.382 23.0955C130.382 22.6586 130.306 22.2553 130.158 21.8856C130.01 21.4992 129.803 21.1714 129.539 20.9026C129.275 20.6169 128.961 20.3985 128.598 20.2473C128.235 20.0793 127.838 19.9952 127.409 19.9952C126.518 19.9952 125.791 20.2893 125.229 20.8774C124.684 21.4656 124.413 22.2049 124.413 23.0955C124.413 23.5325 124.487 23.944 124.635 24.3305C124.783 24.7002 124.99 25.0278 125.254 25.3136C125.518 25.5824 125.832 25.8008 126.195 25.9689C126.574 26.1202 126.98 26.1957 127.409 26.1957Z" fill="black"/>
<path d="M150.526 16.2839V29.8947H145.944V25.1058H142.279V29.8947H137.697V16.2839H142.279V20.972H145.944V16.2839H150.526Z" fill="black"/>
<path d="M161.392 29.8947L158.048 24.1227V29.8947H153.442V16.2839H158.048V21.6274L161.243 16.2839H166.395L162.209 22.7868L166.817 29.8947H161.392Z" fill="black"/>
<path d="M38.2941 0H4.94118C2.21224 0 0 2.25137 0 5.02857V38.9714C0 41.7486 2.21224 44 4.94118 44H38.2941C41.023 44 43.2353 41.7486 43.2353 38.9714V5.02857C43.2353 2.25137 41.023 0 38.2941 0Z" fill="#FEDD2E"/>
<path d="M22.9977 18.2069C24.3176 18.2069 25.5212 18.4308 26.6082 18.8786C27.6953 19.3002 28.6271 19.8928 29.4036 20.6566C30.2059 21.4205 30.8142 22.3424 31.2282 23.4223C31.6682 24.5023 31.8883 25.7008 31.8883 27.0178C31.8883 28.3085 31.6682 29.5069 31.2282 30.6132C30.7882 31.6932 30.1801 32.6151 29.4036 33.3789C28.6271 34.1427 27.6953 34.7486 26.6082 35.1964C25.5212 35.6179 24.3176 35.8286 22.9977 35.8286H11.1176V8.17143H29.4812V14.9277H18.3V18.2069H22.9977ZM21.6389 29.7044C22.4412 29.7044 23.0883 29.4542 23.58 28.9538C24.0718 28.427 24.3176 27.7684 24.3176 26.9783C24.3176 26.188 24.0718 25.5428 23.58 25.0423C23.0883 24.5418 22.4412 24.2915 21.6389 24.2915H18.3V29.7044H21.6389Z" fill="black"/>
</svg>
