<svg width="31" height="54" viewBox="0 0 31 54" fill="none" xmlns="http://www.w3.org/2000/svg">
    <path d="M29.5214 0L0.366699 3.80871V12.4363L29.5214 9.83448V0Z" fill="#E4003A"/>
    <path d="M18.4011 17.3259C13.6411 17.3259 9.77233 20.2624 8.8132 21.4782V17.9543H0.366699V54.0004H8.76019V41.1794C9.7456 42.4216 13.5876 45.3053 18.3743 45.3053C26.3177 45.3053 30.6923 40.9944 30.6923 31.2951C30.6923 21.5956 26.3236 17.3259 18.4011 17.3259ZM15.3942 38.3222C10.3931 38.3222 8.81905 36.5045 8.81905 31.2745C8.81905 26.0445 10.3813 24.2268 15.3942 24.2268C20.4071 24.2268 21.94 26.0181 21.94 31.2745C21.94 36.5308 20.4307 38.3104 15.3942 38.3104V38.3222Z" fill="#00274F"/>
</svg>
