<svg width="16" height="16" viewBox="0 0 16 16" fill="none" xmlns="http://www.w3.org/2000/svg">
<path fill-rule="evenodd" clip-rule="evenodd" d="M10.1068 0.0041349C9.74084 -0.036518 9.41123 0.227178 9.37057 0.593117C9.32992 0.959056 9.59362 1.28866 9.95956 1.32932C11.1621 1.46291 12.2835 2.00142 13.1396 2.85643C13.9956 3.71144 14.5356 4.83214 14.6707 6.0345C14.7118 6.40039 15.0417 6.66367 15.4076 6.62256C15.7735 6.58144 16.0368 6.2515 15.9957 5.88562C15.8268 4.38266 15.1519 2.98179 14.0818 1.91303C13.0117 0.844264 11.6099 0.171125 10.1068 0.0041349ZM10.1608 2.67906C9.79945 2.60856 9.44934 2.84435 9.37884 3.20573C9.30833 3.56711 9.54413 3.91722 9.9055 3.98772C10.4264 4.08936 10.9052 4.34412 11.2805 4.71942C11.6558 5.09471 11.9105 5.57346 12.0122 6.09439C12.0827 6.45576 12.4328 6.69156 12.7942 6.62105C13.1555 6.55055 13.3913 6.20044 13.3208 5.83906C13.1684 5.05767 12.7862 4.33955 12.2233 3.77661C11.6603 3.21367 10.9422 2.83151 10.1608 2.67906ZM5.41271 3.23769C5.36598 2.91591 5.07168 2.6635 4.74638 2.6667L4.73981 2.66676L2.74017 2.66673C2.36832 2.66725 2.04573 3.01601 2.07673 3.38909C2.69803 9.21163 7.48468 13.9837 13.2785 14.6166C13.555 14.6397 13.8336 14.4733 13.9443 14.2198C14.0426 13.9945 14.0758 13.6764 14.0642 13.2501C14.0591 13.0615 14.0463 12.8709 14.0328 12.6703L14.0288 12.6112C14.0145 12.3961 13.9998 12.1654 13.9998 11.9467C13.9998 11.9412 13.9999 11.9357 14 11.9302C14.0082 11.6015 13.7549 11.3015 13.4298 11.254C12.7407 11.1633 12.064 10.9945 11.4131 10.7512L11.4119 10.7508C11.1788 10.6631 10.8872 10.725 10.7096 10.8997L9.86455 11.7448C9.65234 11.957 9.3245 12.0013 9.06362 11.8529C7.29027 10.8446 5.82197 9.37627 4.81362 7.60293C4.66528 7.34204 4.70953 7.0142 4.92174 6.80199C5.0307 6.69303 5.13279 6.59598 5.22807 6.50541C5.45221 6.29234 5.63861 6.11513 5.78798 5.90311C5.96328 5.65427 5.99854 5.4748 5.91578 5.25464L5.91534 5.25347C5.67193 4.60221 5.504 3.92574 5.41271 3.23769ZM4.73687 1.3334C5.73069 1.32544 6.59412 2.06903 6.73325 3.05343L6.73408 3.05929C6.81222 3.64994 6.95608 4.22952 7.16419 4.78641C7.45015 5.54814 7.21617 6.19097 6.87799 6.67101C6.69738 6.92737 6.4558 7.17549 6.23903 7.3854C7.02227 8.61117 8.06365 9.65144 9.29035 10.4334L9.76841 9.95533L9.77106 9.95269C10.3185 9.41133 11.1598 9.23181 11.8805 9.5025C12.4377 9.7107 13.017 9.85501 13.6066 9.9324L13.6129 9.93324C14.6068 10.0734 15.3532 10.9513 15.3332 11.9538C15.3335 12.1199 15.3447 12.3061 15.3592 12.5222L15.3633 12.5834C15.3766 12.7797 15.3912 12.997 15.3971 13.214C15.4098 13.6814 15.3873 14.2468 15.1662 14.7533C14.8256 15.5334 14.0041 16.0219 13.1524 15.944L13.1411 15.9428C6.72076 15.2451 1.43551 9.97712 0.750208 3.5238L0.749186 3.5134C0.64429 2.35262 1.58848 1.33448 2.73919 1.3334H4.73687Z" fill="#3D3D3D"/>
</svg>
