<svg width="18" height="18" viewBox="0 0 18 18" fill="none" xmlns="http://www.w3.org/2000/svg">
<path fill-rule="evenodd" clip-rule="evenodd" d="M0 1.57143C0 2.12371 0.447715 2.57143 1 2.57143H15.8C16.3523 2.57143 16.8 2.12371 16.8 1.57143V1C16.8 0.447716 16.3523 0 15.8 0H1C0.447716 0 0 0.447715 0 1V1.57143ZM0 8C0 8.55228 0.447715 9 1 9H11C11.5523 9 12 8.55228 12 8V7.42857C12 6.87629 11.5523 6.42857 11 6.42857H1C0.447715 6.42857 0 6.87629 0 7.42857V8ZM8.4 14.4286C8.4 14.9809 7.95229 15.4286 7.4 15.4286H1C0.447716 15.4286 0 14.9809 0 14.4286V13.8571C0 13.3049 0.447715 12.8571 1 12.8571H7.4C7.95228 12.8571 8.4 13.3049 8.4 13.8571V14.4286ZM13.7 18C13.4239 18 13.2 17.7761 13.2 17.5V15.6286C13.2 15.5181 13.1105 15.4286 13 15.4286H11.3C11.0239 15.4286 10.8 15.2047 10.8 14.9286V13.3571C10.8 13.081 11.0239 12.8571 11.3 12.8571H13C13.1105 12.8571 13.2 12.7676 13.2 12.6571V10.7857C13.2 10.5096 13.4239 10.2857 13.7 10.2857H15.1C15.3761 10.2857 15.6 10.5096 15.6 10.7857V12.6571C15.6 12.7676 15.6895 12.8571 15.8 12.8571H17.5C17.7761 12.8571 18 13.081 18 13.3571V14.9286C18 15.2047 17.7761 15.4286 17.5 15.4286H15.8C15.6895 15.4286 15.6 15.5181 15.6 15.6286V17.5C15.6 17.7761 15.3761 18 15.1 18H13.7Z" fill="#3D3D3D"/>
</svg>
