<svg width="15" height="15" viewBox="0 0 15 15" fill="none" xmlns="http://www.w3.org/2000/svg">
<path fill-rule="evenodd" clip-rule="evenodd" d="M2.70659 0.292996C2.51799 0.110838 2.26539 0.0100427 2.00319 0.0123211C1.74099 0.0145995 1.49018 0.119769 1.30477 0.305177C1.11937 0.490585 1.0142 0.741397 1.01192 1.00359C1.00964 1.26579 1.11044 1.51839 1.29259 1.707L6.58559 7L1.29259 12.293C1.19708 12.3852 1.1209 12.4956 1.06849 12.6176C1.01608 12.7396 0.988496 12.8708 0.987342 13.0036C0.986189 13.1364 1.01149 13.2681 1.06177 13.3909C1.11205 13.5138 1.18631 13.6255 1.2802 13.7194C1.37409 13.8133 1.48574 13.8875 1.60864 13.9378C1.73154 13.9881 1.86321 14.0134 1.99599 14.0122C2.12877 14.0111 2.25999 13.9835 2.382 13.9311C2.504 13.8787 2.61435 13.8025 2.70659 13.707L7.99959 8.41399L13.2926 13.707C13.4812 13.8892 13.7338 13.9899 13.996 13.9877C14.2582 13.9854 14.509 13.8802 14.6944 13.6948C14.8798 13.5094 14.985 13.2586 14.9873 12.9964C14.9895 12.7342 14.8888 12.4816 14.7066 12.293L9.41359 7L14.7066 1.707C14.8888 1.51839 14.9895 1.26579 14.9873 1.00359C14.985 0.741397 14.8798 0.490585 14.6944 0.305177C14.509 0.119769 14.2582 0.0145995 13.996 0.0123211C13.7338 0.0100427 13.4812 0.110838 13.2926 0.292996L7.99959 5.586L2.70659 0.292996Z" fill="#3D3D3D"/>
</svg>
