<svg width="20" height="21" viewBox="0 0 20 21" fill="none" xmlns="http://www.w3.org/2000/svg">
<path d="M11.9286 12.4286C10.3571 14.05 10.2429 16.0714 10.1071 20.5C14.2357 20.5 17.0857 20.4857 18.5571 19.0571C19.9857 17.5857 20 14.6 20 10.6071C15.5714 10.75 13.55 10.8571 11.9286 12.4286ZM0 10.6071C0 14.6 0.0142857 17.5857 1.44286 19.0571C2.91429 20.4857 5.76429 20.5 9.89286 20.5C9.75 16.0714 9.64286 14.05 8.07143 12.4286C6.45 10.8571 4.42857 10.7429 0 10.6071ZM9.89286 0.5C5.77143 0.5 2.91429 0.514286 1.44286 1.94286C0.0142857 3.41429 0 6.4 0 10.3929C4.42857 10.25 6.45 10.1429 8.07143 8.57143C9.64286 6.95 9.75714 4.92857 9.89286 0.5ZM11.9286 8.57143C10.3571 6.95 10.2429 4.92857 10.1071 0.5C14.2357 0.5 17.0857 0.514286 18.5571 1.94286C19.9857 3.41429 20 6.4 20 10.3929C15.5714 10.25 13.55 10.1429 11.9286 8.57143Z" fill="#A5A9AD"/>
</svg>
