<svg width="42" height="42" viewBox="0 0 42 42" fill="none" xmlns="http://www.w3.org/2000/svg">
    <path fill-rule="evenodd" clip-rule="evenodd" d="M38.3868 18.1859C38.1621 18.3783 37.9378 18.537 37.7152 18.7334C36.2043 19.8844 33.7972 20.8184 30.4941 21.688C23.6286 23.5473 18.6493 23.8004 13.0004 25.1875C11.8792 25.474 10.7241 25.8267 9.66784 26.2761C10.7241 26.8236 11.8792 27.304 13.0348 27.755C15.3436 27.0824 16.4395 26.7921 19.772 26.2463C21.056 26.0168 24.9714 25.3122 27.7951 24.7401C32.9008 23.6437 40.377 21.2674 38.3868 18.1859ZM35.0832 11.7634C33.9874 11.2845 32.64 10.7999 31.2003 10.4179C30.5533 10.9318 29.8204 11.3788 28.724 11.801C30.5261 12.1164 31.874 12.6303 33.4096 13.0505C33.6667 13.1798 34.8858 12.0597 35.0832 11.7634ZM10.0828 18.6035C16.7586 16.6437 23.7549 16.036 30.8472 14.1427C28.0874 13.405 26.542 13.0813 23.6286 13.4365C19.39 13.9504 14.7044 14.8448 10.6952 16.0355C9.11948 16.5184 0.874125 18.8602 3.25192 22.1344C3.25138 22.1679 4.65862 20.1793 10.0828 18.6035ZM5.49364 29.8385C5.46124 30.4509 5.84887 30.9957 6.6514 31.671C6.74572 31.3467 6.90863 31.0942 7.13336 30.7725C6.58544 30.4798 6.03904 30.1936 5.49364 29.8385ZM8.60864 29.5539C9.11948 29.2303 9.72715 28.94 10.4013 28.6844C9.47254 28.2648 8.47822 27.8529 7.51477 27.4019C7.06531 27.6906 6.65086 27.9788 6.33028 28.2648C7.09834 28.7163 7.83905 29.1323 8.60864 29.5539ZM34.2446 15.3633C32.9013 16.0051 30.9761 16.6442 28.2158 17.321C25.9374 17.8973 20.4174 18.6999 14.4823 19.9829C12.6205 20.4009 7.51532 21.5869 5.01224 23.7061C5.71838 24.289 6.16739 24.4143 6.93752 24.8638C7.96433 24.1885 9.3766 23.5473 11.4653 22.9978C15.0869 22.039 17.8179 21.623 21.0931 21.0798C24.3328 20.5906 30.4596 19.3097 33.8296 18.0875C34.9549 17.7051 35.9796 17.1912 36.7163 16.5767C36.4905 16.3241 34.309 15.2648 34.2446 15.3633ZM36.2043 14.172C36.876 14.4942 37.4904 14.7195 38.0657 15.1375C38.4806 14.3329 38.2234 13.819 37.3616 13.0819C37.007 13.5014 36.6193 13.8525 36.2043 14.172ZM5.17459 26.2112C4.56223 25.8936 4.1782 25.6365 3.66376 25.3128C3.40654 25.8936 3.92512 26.5307 4.43596 26.8236C4.65862 26.5978 4.9504 26.4056 5.17459 26.2112ZM33.5384 7.78707C33.4096 8.23653 32.9337 8.78193 32.6096 9.13707C33.6054 9.39429 34.6322 9.77418 35.5925 10.1293C35.4657 9.23085 34.4389 8.36388 33.5384 7.78707ZM2.15554 13.4638C9.15187 8.90712 16.8869 6.2118 29.9781 8.49321C30.6843 8.07309 31.0997 7.65558 31.2966 6.82155C28.0204 5.63499 24.4611 5.21694 19.874 5.27931C15.7632 5.40873 8.34988 6.94683 4.37512 9.29529L5.59004 7.78653C8.34989 6.1443 15.5689 3.99636 20.9952 3.89844C24.8112 3.80457 26.7688 4.02624 31.3271 5.24637C30.9075 4.48137 29.9786 4.09275 28.5982 3.4515C24.2044 1.49175 16.0204 1.29735 9.31531 4.28292C10.1467 3.70611 10.9818 3.19014 12.0756 2.71593C14.2854 1.68606 17.9143 0.68913 22.4369 0.78552C26.0663 0.84996 30.3662 2.10204 32.9956 4.70304C33.4425 5.24637 33.7018 5.79168 33.7977 6.2118C35.8843 7.2711 37.1013 8.26542 37.775 9.42102C38.0662 10.0314 38.1626 10.6726 38.0322 11.4102C38.8981 11.9221 39.3183 12.3736 39.7698 12.9566C40.0538 13.437 40.2786 13.9783 40.3456 14.4674C40.4394 15.1045 40.5033 15.8442 39.8296 16.7117C40.5358 17.0669 41.1116 18.0571 41.1806 18.4792C41.5316 20.0462 40.5038 21.588 39.1905 22.7793C37.6477 24.1246 34.2461 25.7318 31.4858 26.44C26.0343 27.8174 21.1864 28.3983 17.3395 29.1045C19.0704 29.5205 21.4127 30.0694 25.2323 30.0694C33.4111 30.0694 40.6316 26.2128 40.6316 26.2128C40.6316 26.2128 40.4739 26.6993 40.311 27.1488C35.1126 30.2931 26.8688 31.607 23.3359 31.4467C19.7735 31.2838 16.7596 30.7406 13.807 29.84C12.9076 30.0988 12.0091 30.389 11.1452 30.7406C15.6384 32.7942 19.0379 33.2452 22.8575 33.5317C26.7699 33.8241 33.2554 32.8885 38.7064 30.9029C38.4498 31.1622 38.3219 31.5446 38.0673 31.7704C35.2729 33.2452 29.3724 34.723 26.3874 34.8503C23.4323 34.9797 19.8405 34.8503 16.6947 34.2715C13.9993 33.7282 11.7823 32.8885 9.47353 31.8668C9.05908 32.1823 8.86685 32.573 8.7674 33.022C17.7885 37.74 26.192 37.8359 35.7904 34.8503L34.9193 35.6859C24.3627 39.9884 16.1168 38.3168 9.72868 35.2369C9.50602 35.139 9.24934 35.0405 9.05908 34.9132C9.66947 35.9431 14.5426 39.5055 19.9982 39.9544C23.756 40.2761 28.343 39.6328 31.0709 38.5447L29.4683 39.3761C28.1498 40.0194 24.6544 41.4987 19.7735 41.1766C13.2612 40.7255 9.60034 37.8359 7.96531 36.3297C7.19311 35.6189 6.84418 34.8189 6.61738 33.8246C5.14111 33.0534 4.21069 32.2488 3.44263 31.0287C2.99317 30.356 3.0875 29.556 3.18389 28.8767L3.38134 28.3045C2.67304 27.7864 1.93442 27.2411 1.64624 26.6999C1.00193 25.5426 1.39108 24.5436 1.83856 23.7746C1.45093 23.3257 1.09777 22.8762 0.942165 22.4272C0.749925 21.9133 0.717435 21.3947 0.777195 20.8205C0.905535 19.8591 1.4215 18.9612 2.09578 18.188C3.505 16.552 5.75653 15.2669 9.57046 14.0153C13.3281 12.7618 14.8369 12.5674 17.6607 11.9236C20.9642 11.1571 24.9116 10.902 28.2173 9.74628C19.0039 8.14167 9.44518 9.61695 1.64677 14.9741L2.15554 13.4638Z" fill="white"/>
</svg>
