<svg width="14" height="16" viewBox="0 0 14 16" fill="none" xmlns="http://www.w3.org/2000/svg">
<path fill-rule="evenodd" clip-rule="evenodd" d="M4.9587 1.73931C5.60577 1.47128 6.29929 1.33333 6.99967 1.33333C7.70006 1.33333 8.39358 1.47128 9.04065 1.73931C9.68772 2.00733 10.2757 2.40018 10.7709 2.89543C11.2662 3.39068 11.659 3.97862 11.927 4.62569C12.1951 5.27276 12.333 5.96628 12.333 6.66667C12.333 8.73204 10.9892 10.7362 9.51571 12.2915C8.7926 13.0548 8.06723 13.6796 7.52189 14.1139C7.31893 14.2755 7.14166 14.4101 6.99967 14.5151C6.85769 14.4101 6.68042 14.2755 6.47746 14.1139C5.93212 13.6796 5.20675 13.0548 4.48364 12.2915C3.01017 10.7362 1.66634 8.73204 1.66634 6.66667C1.66634 5.96628 1.80429 5.27276 2.07232 4.62569C2.34034 3.97862 2.73319 3.39068 3.22844 2.89543C3.72368 2.40018 4.31163 2.00733 4.9587 1.73931ZM6.62951 15.8878C6.62971 15.8879 6.62987 15.888 6.99967 15.3333L7.36947 15.888C7.14554 16.0373 6.85345 16.0371 6.62951 15.8878ZM6.62951 15.8878L6.99967 15.3333C7.36947 15.888 7.37014 15.8876 7.37033 15.8875L7.37174 15.8865L7.37618 15.8835L7.39146 15.8732C7.40444 15.8644 7.42296 15.8517 7.44664 15.8353C7.49399 15.8025 7.56203 15.7547 7.64781 15.6928C7.81931 15.5689 8.0621 15.3881 8.35246 15.1569C8.93212 14.6954 9.70675 14.0286 10.4836 13.2085C12.0102 11.5972 13.6663 9.26796 13.6663 6.66667C13.6663 5.79119 13.4939 4.92428 13.1589 4.11544C12.8238 3.30661 12.3328 2.57168 11.7137 1.95262C11.0947 1.33356 10.3597 0.842501 9.5509 0.50747C8.74206 0.172438 7.87515 0 6.99967 0C6.1242 0 5.25729 0.172438 4.44845 0.50747C3.63961 0.842501 2.90469 1.33356 2.28563 1.95262C1.66657 2.57168 1.17551 3.30661 0.840478 4.11544C0.505446 4.92428 0.333008 5.79119 0.333008 6.66667C0.333008 9.26796 1.98918 11.5972 3.51571 13.2085C4.2926 14.0286 5.06723 14.6954 5.64689 15.1569C5.93725 15.3881 6.18004 15.5689 6.35154 15.6928C6.43732 15.7547 6.50536 15.8025 6.55271 15.8353C6.57639 15.8517 6.59491 15.8644 6.60789 15.8732L6.62317 15.8835L6.62761 15.8865L6.62951 15.8878ZM6.99967 4C6.29243 4 5.61415 4.28095 5.11406 4.78105C4.61396 5.28115 4.33301 5.95942 4.33301 6.66667C4.33301 7.37391 4.61396 8.05219 5.11406 8.55228C5.61415 9.05238 6.29243 9.33333 6.99967 9.33333C7.70692 9.33333 8.3852 9.05238 8.88529 8.55228C9.38539 8.05219 9.66634 7.37391 9.66634 6.66667C9.66634 5.95942 9.38539 5.28115 8.88529 4.78105C8.3852 4.28095 7.70692 4 6.99967 4ZM7.94248 7.60948C7.69244 7.85952 7.3533 8 6.99967 8C6.64605 8 6.30691 7.85952 6.05687 7.60948C5.80682 7.35943 5.66634 7.02029 5.66634 6.66667C5.66634 6.31304 5.80682 5.97391 6.05687 5.72386C6.30691 5.47381 6.64605 5.33333 6.99967 5.33333C7.3533 5.33333 7.69244 5.47381 7.94248 5.72386C8.19253 5.97391 8.33301 6.31304 8.33301 6.66667C8.33301 7.02029 8.19253 7.35943 7.94248 7.60948Z" fill="#3D3D3D"/>
</svg>
