<svg width="16" height="12" viewBox="0 0 16 12" fill="none" xmlns="http://www.w3.org/2000/svg">
<path fill-rule="evenodd" clip-rule="evenodd" d="M2.0714 1.70258C2.18166 1.48459 2.40837 1.33333 2.66699 1.33333H13.3337C13.5923 1.33333 13.819 1.48462 13.9293 1.70264L8.00038 5.85287L2.0714 1.70258ZM2.00033 3.28037V10C2.00033 10.3651 2.30185 10.6667 2.66699 10.6667H13.3337C13.6988 10.6667 14.0003 10.3651 14.0003 10V3.28045L8.38269 7.2128C8.15314 7.37348 7.84762 7.37348 7.61807 7.2128L2.00033 3.28037ZM15.3337 2.01175V10C15.3337 11.1015 14.4352 12 13.3337 12H2.66699C1.56547 12 0.666992 11.1015 0.666992 10V2C0.666992 0.898477 1.56547 0 2.66699 0H13.3337C14.4298 0 15.3249 0.889787 15.3336 1.98399C15.3338 1.99325 15.3338 2.00251 15.3337 2.01175Z" fill="#3D3D3D"/>
</svg>
