<svg width="24" height="25" viewBox="0 0 24 25" fill="none" xmlns="http://www.w3.org/2000/svg">
<path d="M6.17681 13.2383C5.68634 14.3504 6.24322 14.882 7.5138 15.7901C8.59395 16.5598 10.0862 16.8413 11.0447 16.9539C10.6518 17.3895 12.4521 15.3924 7.26736 21.1447C6.168 22.3602 7.93786 24.3102 9.03641 23.1206L12.0104 19.8121C13.149 21.0755 14.2404 22.2863 14.9845 23.1252C16.0838 24.3194 17.8529 22.386 16.7655 21.1493C16.6839 21.0598 12.7353 16.6909 12.9762 16.9585C13.9467 16.8459 15.4165 16.5478 16.4839 15.7947L16.4831 15.7938C17.7537 14.8811 18.3105 14.3504 17.8273 13.2383C17.5352 12.6071 16.7479 12.0792 15.6998 12.9919C15.6998 12.9919 14.2844 14.2424 12.0016 14.2424C9.71811 14.2424 8.30351 12.9919 8.30351 12.9919C7.25616 12.0746 6.46565 12.6071 6.17681 13.2383Z" fill="#A5A9AD"/>
<path d="M11.5004 12.5C14.5279 12.5 17 10.0376 17 7.00634C17 3.96236 14.5279 1.5 11.5004 1.5C8.47211 1.5 6 3.96236 6 7.00634C6 10.0376 8.47211 12.5 11.5004 12.5ZM11.5004 4.28941C12.9881 4.28941 14.2015 5.50428 14.2015 7.00634C14.2015 8.49572 12.9881 9.71059 11.5004 9.71059C10.0128 9.71059 8.7994 8.49572 8.7994 7.00634C8.79853 5.50338 10.0119 4.28941 11.5004 4.28941Z" fill="#A5A9AD"/>
</svg>
