<svg width="16" height="16" viewBox="0 0 16 16" fill="none" xmlns="http://www.w3.org/2000/svg">
<path fill-rule="evenodd" clip-rule="evenodd" d="M8.00033 0.666504C3.95014 0.666504 0.666992 3.94965 0.666992 7.99984C0.666992 12.05 3.95014 15.3332 8.00033 15.3332C12.0505 15.3332 15.3337 12.05 15.3337 7.99984C15.3337 3.94965 12.0505 0.666504 8.00033 0.666504ZM2.00033 7.99984C2.00033 4.68603 4.68652 1.99984 8.00033 1.99984C11.3141 1.99984 14.0003 4.68603 14.0003 7.99984C14.0003 11.3136 11.3141 13.9998 8.00033 13.9998C4.68652 13.9998 2.00033 11.3136 2.00033 7.99984ZM8.66699 3.99984C8.66699 3.63165 8.36852 3.33317 8.00033 3.33317C7.63213 3.33317 7.33366 3.63165 7.33366 3.99984V7.99984C7.33366 8.25235 7.47633 8.48319 7.70218 8.59612L10.3688 9.92945C10.6982 10.0941 11.0986 9.96063 11.2633 9.63131C11.4279 9.30199 11.2945 8.90154 10.9651 8.73689L8.66699 7.58781V3.99984Z" fill="#3D3D3D"/>
</svg>
