<svg width="55" height="49" viewBox="0 0 55 49" fill="none" xmlns="http://www.w3.org/2000/svg">
    <path d="M53.7033 23.2899L54.3333 21.0399H51.9933C50.9273 21.0105 49.8939 20.666 49.0233 20.05H49.2933C50.7333 20.05 52.0833 19.15 52.7133 17.98L53.6133 15.82C52.8303 15.8109 52.0486 15.7508 51.2733 15.64C51.2733 15.64 50.3733 15.55 49.2933 14.4699C48.8191 13.9677 48.2134 13.6086 47.5451 13.4335C46.8769 13.2585 46.1729 13.2746 45.5133 13.48L45.6033 12.94C45.9633 10.87 44.6133 9.33995 44.6133 9.33995L42.8133 7.08995L41.7333 9.69995C41.7333 9.69995 41.4633 10.33 41.0133 10.6C40.8333 9.87995 40.4733 9.06995 39.7533 8.25995C39.1127 7.59058 38.3201 7.08563 37.4427 6.78794C36.5653 6.49025 35.629 6.40861 34.7133 6.54995L32.7333 6.99995C32.9226 6.26692 33.2264 5.56834 33.6333 4.92995L34.7133 3.12995L31.8333 3.48995L30.9333 1.50995L29.1333 2.40995L27.3333 0.699951L25.7133 2.31995L23.9133 1.41995L23.0133 3.39995L20.0433 3.03995L21.2133 4.83995C21.6203 5.47834 21.924 6.17692 22.1133 6.90995L20.0433 6.45995H19.0533C18.1533 6.45995 16.3533 6.63995 14.9133 8.16995C14.1933 8.97995 13.8333 9.78995 13.6533 10.51C13.2033 10.24 12.9333 9.60995 12.9333 9.60995L11.8533 7.08995L10.0533 9.24995C9.87334 9.60995 8.79334 11.05 9.06334 12.85L9.15334 13.48L8.07334 13.3C6.99334 13.3 6.09334 13.66 5.37334 14.4699C4.29334 15.55 3.39334 15.64 3.39334 15.64C3.39334 15.64 2.49334 15.82 1.05334 15.82L1.95334 17.98C2.27295 18.6102 2.76279 19.1382 3.36731 19.5041C3.97182 19.8699 4.66678 20.0591 5.37334 20.05H5.64334C4.78319 20.6981 3.74889 21.0742 2.67334 21.13L0.333344 21.0399L1.05334 23.2899C1.41334 24.3699 2.58334 26.35 4.92334 26.53C4.65334 27.61 4.02334 28.78 2.85334 29.23L1.05334 29.95L2.13334 31.66C2.67334 32.56 3.93334 33.6399 5.73334 33.6399C6.09334 33.6399 6.45334 33.6399 6.81334 33.46L7.17334 34.7199C7.71334 36.34 7.26334 37.4199 7.26334 37.4199L6.36334 39.2199L8.34334 39.76C9.07868 39.9477 9.84535 39.9784 10.5933 39.8499L11.3133 39.6699C11.4933 40.1199 11.8533 40.57 12.2133 40.84C12.9017 41.5095 13.7202 42.0306 14.618 42.3712C15.5159 42.7118 16.4741 42.8645 17.4333 42.82H19.0533L15.6333 44.1699L18.1533 45.3399L21.2133 46.6899L20.9433 47.5899L21.8433 47.95C23.563 48.6156 25.4008 48.9219 27.2433 48.8499H28.3233C31.0233 48.7599 32.6433 47.95 32.8233 47.95L33.6333 47.5899L33.2733 46.6899C34.3458 46.2943 35.3972 45.8437 36.4233 45.3399L38.8533 44.1699L35.6133 42.82H37.2333C39.4833 42.82 41.2833 42.1899 42.4533 40.84C42.8133 40.4799 43.1733 40.1199 43.3533 39.6699C43.8727 39.8566 44.4215 39.9481 44.9733 39.9399C45.6933 39.9399 46.3233 39.85 46.3233 39.76L48.3033 39.31L47.4033 37.51C47.4033 37.51 46.9533 36.34 47.4933 34.81L47.8533 33.46L48.9333 33.6399C51.2733 33.6399 52.3533 32.02 52.5333 31.66L53.5233 29.95L51.7233 29.23C50.5533 28.78 50.0133 27.61 49.7433 26.53C52.0833 26.35 53.3433 24.4599 53.6133 23.2899" fill="white"/>
    <path d="M27.3333 7.53995C25.5333 7.53995 24.0933 8.16995 23.7333 8.88995L27.3333 10.33L30.9333 8.88995C30.5733 8.16995 29.1333 7.53995 27.3333 7.53995ZM27.3333 44.7999C26.1633 44.7999 24.6333 44.5299 23.9133 44.3499L23.0133 46.7799C25.8727 47.5478 28.884 47.5478 31.7433 46.7799L30.8433 44.3499C30.0333 44.5299 28.5033 44.7999 27.3333 44.7999ZM34.1733 42.3699C33.5433 42.7299 32.0133 43.2699 31.1133 43.5399L31.9233 45.61C33.2733 45.25 34.3533 44.7999 35.2533 44.3499L33.7233 43.81L34.1733 42.3699ZM20.4933 42.3699L20.9433 43.81L19.4133 44.3499C20.3133 44.7999 21.4833 45.25 22.8333 45.61L23.5533 43.5399C22.6533 43.3599 21.1233 42.7299 20.4933 42.3699ZM27.3333 5.19995C28.678 5.174 30.0081 5.48331 31.2033 6.09995L31.5633 5.01995H31.2033L30.7533 5.10995L30.5733 4.74995L30.0333 3.57995L29.1333 4.11995L28.6833 4.29995L28.4133 4.02995L27.3333 2.94995L26.2533 4.02995L25.9833 4.29995L25.6233 4.11995L24.6333 3.57995L24.0933 4.74995L23.9133 5.10995H23.1033L23.4633 6.18995C24.6586 5.57331 25.9886 5.264 27.3333 5.28995V5.19995ZM48.7533 18.3399H49.2933C50.1933 18.3399 50.9133 17.89 51.0933 17.26C51.0933 17.26 49.6533 17.26 48.1233 15.64C47.6733 15.1 47.1333 14.92 46.6833 14.92C45.9633 14.92 45.4233 15.37 45.4233 15.37C47.3133 16.2699 47.6733 17.9799 48.7533 18.3399ZM5.37333 18.43L5.91333 18.3399C6.99333 17.9799 7.35333 16.36 9.24333 15.37C9.24333 15.37 8.70333 14.92 8.07333 14.92C7.53333 14.92 7.08333 15.1 6.54333 15.64C5.76499 16.5002 4.71803 17.0713 3.57333 17.26C3.75333 17.89 4.56333 18.43 5.37333 18.43Z" fill="white"/>
    <path d="M48.2133 29.95C46.7733 29.23 45.7833 27.25 45.5133 26.62C45.3333 30.4 43.5333 33.01 41.3733 35.62C40.7135 36.3593 40.1949 37.2135 39.8433 38.14C39.8433 38.14 40.0233 36.7 41.0133 35.44C42.9933 33.1 44.9733 30.04 45.0633 26.53C45.1533 24.1 44.5233 22.12 43.6233 20.5C43.9723 21.4958 44.0219 22.572 43.766 23.5956C43.5101 24.6193 42.9599 25.5456 42.1833 26.26C42.1833 26.26 45.8733 21.76 40.7433 17.26C38.6733 15.46 36.3333 14.47 35.2533 13.66C39.3933 15.1 41.5533 13.57 41.5533 13.57C40.1133 14.74 38.4033 14.74 37.3233 14.47L38.2233 15.01C41.8233 16.9 44.9733 20.14 45.5133 24.55C46.4133 28.78 48.2133 29.95 48.2133 29.95ZM49.2933 24.91H49.3833C51.3633 24.91 52.0833 22.75 52.0833 22.75H51.9933C50.9515 22.7177 49.929 22.4595 48.9967 21.9933C48.0643 21.5271 47.2443 20.8641 46.5933 20.05C45.2433 18.25 44.0733 16.72 41.9133 16.18H41.6433V15.91C41.6433 15.55 41.8233 15.19 42.3633 14.92C45.4233 12.85 43.2633 10.33 43.2633 10.33C43.2633 10.33 42.3633 12.4 40.4733 12.4H40.2933L39.6633 12.31H39.3033C39.3033 12.31 39.8433 10.69 38.4933 9.33998C38.111 8.93767 37.6501 8.61823 37.1392 8.40148C36.6283 8.18473 36.0783 8.0753 35.5233 8.07998H34.9833C35.6133 8.97998 36.1533 10.51 35.3433 11.41C34.7133 12.22 33.0033 12.22 33.0033 13.39C33.0033 13.84 33.4533 14.47 34.3533 14.92C36.7833 16.54 39.3033 18.52 40.2933 21.4C41.5533 24.82 40.1133 27.16 38.0433 28.42C38.0433 28.42 38.6733 29.05 39.6633 29.14H40.2033C42.1833 29.14 43.1733 28.24 43.1733 28.24C43.1733 28.24 42.9933 29.5 42.0033 30.67C41.1033 31.75 39.8433 32.47 37.8633 32.47C37.8633 32.47 37.8633 33.37 38.7633 34.09C39.2133 34.54 40.4733 34.72 40.4733 34.72C40.4733 34.72 38.1333 35.17 37.8633 38.59C37.7733 40.48 37.2333 41.11 37.2333 41.11C42.6333 41.11 42.6333 36.52 42.6333 36.52C42.8065 37.0148 43.12 37.4485 43.5355 37.7681C43.9511 38.0878 44.4507 38.2795 44.9733 38.32L45.8733 38.23C45.8733 38.23 45.1533 36.52 45.8733 34.18C46.5933 32.29 46.4133 30.85 46.4133 30.85C46.4133 30.85 47.1333 31.93 49.0233 31.93C50.4633 31.93 51.1833 30.85 51.1833 30.85C47.5833 29.32 47.9433 24.55 47.9433 24.55C47.9433 24.55 48.3933 24.82 49.2933 24.91ZM13.3833 35.53C10.9479 33.1184 9.42158 29.9386 9.06334 26.53C8.88334 27.25 7.98334 29.23 6.45334 29.95C6.45334 29.95 8.25334 28.78 9.15334 24.55C9.69334 20.05 12.8433 16.9 16.4433 15.01L17.3433 14.56C16.2633 14.74 14.5533 14.74 13.2033 13.57C13.2033 13.57 15.2733 15.1 19.5033 13.66C18.3333 14.47 15.9933 15.46 13.9233 17.26C8.79334 21.76 12.4833 26.26 12.4833 26.26C11.7223 25.5354 11.1891 24.6044 10.9494 23.5813C10.7096 22.5582 10.7735 21.4873 11.1333 20.5C10.1433 22.12 9.51334 24.1 9.60334 26.53C9.69334 30.13 11.6733 33.1 13.6533 35.53C14.6433 36.7 14.9133 38.23 14.9133 38.23C14.9133 38.23 14.4633 36.88 13.3833 35.53ZM14.2833 34.72C14.2833 34.72 15.4533 34.54 15.9933 34.09C16.8933 33.28 16.8033 32.47 16.8033 32.47C14.9133 32.47 13.6533 31.75 12.6633 30.67C11.6733 29.5 11.4933 28.24 11.4933 28.24C11.4933 28.24 12.4833 29.14 14.4633 29.14H15.0033C15.9033 29.05 16.6233 28.42 16.6233 28.42C14.5533 27.16 13.1133 24.82 14.3733 21.4C15.4533 18.61 17.8833 16.54 20.4033 14.92C21.2133 14.47 21.6633 13.84 21.6633 13.39C21.6633 12.22 19.9533 12.22 19.3233 11.41C18.5133 10.51 19.0533 8.97998 19.6833 8.16998H19.2333C18.5133 8.16998 17.2533 8.25998 16.2633 9.33998C14.9133 10.69 15.4533 12.22 15.4533 12.22H15.0933L14.4633 12.4H14.2833C12.3033 12.4 11.4933 10.33 11.4933 10.33C11.4933 10.33 9.42334 12.85 12.3933 14.83C12.9333 15.19 13.2933 15.55 13.1133 15.91V16.09H12.8433C10.6833 16.72 9.51334 18.25 8.16334 20.05C7.51235 20.8641 6.69235 21.5271 5.76001 21.9933C4.82767 22.4595 3.80522 22.7177 2.76334 22.75C2.76334 22.75 3.39334 24.91 5.46334 24.91C6.36334 24.91 6.90334 24.46 6.90334 24.46C6.90334 24.46 7.17334 29.32 3.66334 30.76C3.66334 30.76 4.29334 31.93 5.73334 31.93C7.53334 31.93 8.34334 30.85 8.34334 30.85C8.34334 30.85 8.25334 32.29 8.88334 34.18C9.60334 36.52 8.88334 38.23 8.88334 38.23H10.2333C11.7633 37.87 12.0333 36.43 12.0333 36.43C12.0333 36.43 12.0333 41.11 17.4333 41.11C17.4333 41.11 16.8933 40.48 16.8033 38.59C16.5333 35.17 14.1933 34.72 14.1933 34.72M26.1633 17.71H28.6833V18.61C28.3233 18.16 27.7833 18.25 27.7833 18.25V19.51C27.7833 19.51 27.7833 20.14 28.0533 20.41H26.7933C26.9733 20.14 26.9733 19.51 26.9733 19.51V18.25C26.9733 18.25 26.4333 18.25 26.0733 18.52V17.62L26.1633 17.71ZM23.3733 17.8L23.6433 18.07V18.16L23.9133 18.52L24.1833 18.97C24.9933 20.32 26.2533 21.13 27.3333 21.13C28.4133 21.13 29.6733 20.32 30.4833 18.97L30.7533 18.61V18.52C30.9146 18.2665 31.0951 18.0258 31.2933 17.8C31.7433 17.35 32.1933 17.08 32.8233 16.9L32.5533 16.72L31.4733 16.09L30.3933 15.46L27.3333 17.08L24.3633 15.46L23.1933 16.09L22.1133 16.72L21.8433 16.9C22.4733 17.08 22.9233 17.35 23.2833 17.8" fill="white"/>
    <path d="M26.4333 12.13V13.03L26.2533 12.85C26.2533 12.85 25.9833 12.85 25.6233 12.49C24.9033 11.95 24.9033 11.5 24.9033 11.5L26.3433 12.13H26.4333ZM27.0633 16V10.87L23.8233 9.79004L24.7233 14.74L27.0633 16ZM28.2333 12.13L29.7633 11.5C29.7633 11.5 29.7633 11.95 29.1333 12.49C28.6833 12.85 28.5033 12.85 28.4133 12.85L28.3233 12.94V12.04L28.2333 12.13ZM30.0333 14.74L30.9333 9.79004L27.6033 10.87V16L30.0333 14.74ZM22.4733 27.79C22.8333 27.97 23.1933 27.97 23.3733 27.97V27.88V27.7L23.5533 26.8C23.3733 26.8 23.1933 26.62 23.1033 26.44C23.0133 26.17 22.8333 26.08 22.5633 26.08C22.2447 26.0888 21.9341 26.1819 21.6633 26.35C21.6633 27.07 22.1133 27.7 22.5633 27.79M29.6733 25.09L27.8733 26.89L27.7833 27.07L24.0033 26.98L23.9133 27.88V28.06L28.3233 28.78L30.5733 27.16C30.2133 26.71 30.1233 26.08 30.2133 25.63L29.6733 25.09Z" fill="white"/>
    <path d="M30.2133 20.5901C29.8447 20.9856 29.399 21.3014 28.9037 21.5181C28.4084 21.7348 27.874 21.8478 27.3333 21.8501C27.0641 21.8778 26.7926 21.8778 26.5233 21.8501V22.7501C26.7033 23.1101 27.0633 23.3801 27.5133 23.5601H27.6933V23.7401C27.6933 23.7401 27.6933 24.9101 28.8633 25.1801L29.4033 24.6401C29.1333 24.1001 29.3133 23.5601 29.6733 23.2901C29.6733 23.2901 29.4933 24.7301 30.5733 25.2701H30.8433L30.7533 25.5401C30.7533 25.5401 30.3033 26.9801 31.6533 27.5201H32.0133L31.8333 27.8801C31.8333 27.8801 31.2933 29.1401 32.5533 29.8601H35.4333V27.6101C34.5333 27.6101 34.0833 26.7101 33.9033 26.1701C33.4533 26.1701 33.0933 25.9001 32.9133 25.5401C32.2833 24.8201 32.8233 24.1001 32.8233 24.1001C32.8233 24.1001 32.8233 24.8201 33.2733 25.2701C33.4533 25.5401 33.7233 25.7201 34.1733 25.7201H34.3533V25.9901C34.3533 25.9901 34.5333 26.9801 35.4333 27.1601V22.6601C35.4333 21.9401 35.6133 21.3101 35.8833 20.5901H30.3033M22.7433 22.6601L22.6533 25.5401H22.9233L23.8233 22.8401L23.3733 21.9401L22.7433 22.6601ZM24.4533 33.2801C24.3633 33.2801 24.2733 33.2801 24.2733 33.1001L24.4533 32.9201L24.6333 33.1001L24.4533 33.2801ZM31.4733 35.8001H31.5633C32.1033 35.9801 32.1933 37.7801 33.0933 37.8701H33.2733C33.5433 37.8701 33.7233 37.8701 33.8133 37.6001L33.0933 36.5201C32.6433 35.8901 32.2833 35.1701 31.4733 35.1701L31.0233 35.2601L30.1233 34.9901C29.5833 34.9901 29.2233 35.2601 29.0433 35.2601L27.2433 35.0801C26.8833 35.0801 26.7033 34.7201 26.6133 34.6301V34.4501C26.5233 33.0101 25.3533 32.3801 24.9933 32.3801L24.9033 31.9301L24.5433 32.4701L23.1933 31.7501L24.0933 32.8301L23.3733 33.7301C23.2833 33.8201 23.2833 34.0001 23.3733 34.0901L23.6433 34.3601L24.0933 34.0901H24.6333C24.8133 34.0901 24.9933 34.0901 24.9933 33.9101C24.9933 34.4501 24.4533 35.3501 24.7233 36.1601L24.9933 36.7001L23.3733 36.4301L22.6533 37.7801C22.4733 38.1401 22.3833 38.6801 22.6533 38.8601L22.9233 39.2201L23.3733 38.5001L23.2833 38.4101C23.1033 38.2301 23.1933 38.1401 23.2833 38.0501L23.6433 37.2401L25.5333 37.6901L25.6233 37.5101L26.1633 37.2401H26.4333L27.9633 37.4201C28.5933 37.4201 29.2233 37.3301 29.4933 36.9701C30.2133 37.9601 31.5633 38.1401 31.4733 38.6801L31.1133 40.3901H31.8333L32.1933 38.5901V38.0501L31.5633 37.2401C31.3833 36.7901 31.5633 36.6101 31.2933 35.9801C31.2933 35.9801 31.2933 35.8001 31.4733 35.8001Z" fill="white"/>
    <path d="M21.9333 37.4201C21.9333 37.4201 22.4733 37.2401 22.5633 37.0601L22.4733 36.7901V36.4301L23.1934 35.9801L24.3633 36.1601C24.3633 36.1601 24.0933 35.9801 24.1833 35.6201L23.1033 35.3501L22.0233 35.9801C21.8422 36.1077 21.7145 36.2976 21.6647 36.5135C21.6149 36.7294 21.6465 36.956 21.7533 37.1501L21.8434 37.4201M29.8533 40.3901H30.4833L31.1133 38.5901L29.8533 37.9601C30.0333 38.2301 30.4834 38.5001 30.3934 38.7701L29.8533 40.3901Z" fill="white"/>
    <path d="M35.4334 30.4001H19.2334V36.3401C19.2334 38.8601 21.0334 40.3901 23.7334 40.3901C25.8934 40.3901 26.4334 40.3901 27.3334 41.2901C27.7834 40.7501 28.2334 40.4801 29.2234 40.3901L29.7634 38.7701L28.8634 37.8701H27.8734C27.2719 37.9023 26.6686 37.8721 26.0734 37.7801L25.8934 37.9601L25.7134 38.2301H25.3534L23.8234 37.7801L23.6434 38.1401L23.8234 38.4101V38.6801L23.1934 39.5801L22.7434 39.9401L22.3834 39.4901L22.2034 39.2201C21.8434 38.8601 21.8434 38.3201 21.9334 37.8701L21.5734 38.0501L21.3034 37.6901L21.2134 37.3301C20.9434 36.7901 21.0334 36.0701 21.6634 35.5301L22.9234 34.9001L24.0934 35.1701L24.1834 34.5401L23.4634 34.7201L22.8334 34.2701C22.8334 34.2701 22.5634 34.0901 22.8334 33.8201L23.3734 32.9201L21.8434 30.8501L24.2734 31.8401L24.4534 31.6601L24.8134 31.2101L25.1734 31.5701L25.3534 31.9301C26.0734 32.2001 27.2434 33.0101 27.3334 34.2701L26.9734 34.4501L27.1534 34.6301L28.9534 34.7201H29.0434L29.9434 34.5401C30.3034 34.5401 30.6634 34.5401 30.9334 34.7201H31.3834C32.2834 34.7201 32.8234 35.3501 33.1834 35.8901L33.3634 36.2501L34.1734 37.4201L34.3534 37.6901L34.1734 37.9601C33.9934 38.1401 33.6334 38.4101 33.2734 38.4101C33.0597 38.4177 32.8463 38.3873 32.6434 38.3201L32.5534 38.5901L32.2834 40.2101C34.0834 39.7601 35.2534 38.4101 35.2534 36.3401V30.4001M19.3234 29.8601H31.8334C31.2034 29.2301 31.2034 28.4201 31.2934 27.8801L30.8434 27.5201L28.5034 29.3201L23.5534 28.4201H22.8334C22.8572 28.5394 22.8327 28.6634 22.7652 28.7646C22.6977 28.8659 22.5927 28.9362 22.4734 28.9601C22.354 28.984 22.2301 28.9594 22.1288 28.8919C22.0275 28.8244 21.9572 28.7194 21.9334 28.6001V28.1501C21.4834 27.7901 21.0334 26.9801 21.2134 26.1701V26.0801L21.4834 25.9001L21.1234 25.8101C21.0681 25.7907 21.0207 25.7538 20.9883 25.7051C20.9558 25.6565 20.94 25.5985 20.9434 25.5401C20.9434 25.3601 21.1234 25.2701 21.2134 25.3601L22.1134 25.4501V22.4801L23.3734 21.1301L24.2734 22.8401L23.3734 25.6301L24.0934 25.8101C24.2734 25.8101 24.3634 25.9001 24.2734 26.0801C24.2734 26.1701 24.2734 26.2601 24.0934 26.2601L23.4634 26.1701C23.4634 26.3501 23.6434 26.4401 23.7334 26.5301H27.5134L28.4134 25.6301C27.5134 25.2701 27.1534 24.4601 27.1534 23.9201C26.6134 23.7401 26.2534 23.3801 26.0734 23.0201C25.8034 22.4801 25.8934 21.9401 25.9834 21.6701C25.4434 21.4901 24.9034 21.1301 24.4534 20.5901H18.7834C19.0534 21.3101 19.2334 21.9401 19.2334 22.6601V29.8601" fill="#FEE80E"/>
    <path d="M24.4533 32.9199L24.2733 33.0999C24.2733 33.1899 24.2733 33.2799 24.4533 33.2799C24.4533 33.2799 24.6333 33.2799 24.6333 33.0999C24.6333 33.0999 24.6333 32.9199 24.4533 32.9199ZM31.8333 45.6099L31.1133 43.5399C32.0133 43.3599 33.5433 42.7299 34.1733 42.3699L33.7233 43.8099L35.2533 44.3499C34.3533 44.7999 33.2733 45.2499 31.9233 45.6099H31.8333ZM27.3333 47.4099C25.5333 47.4099 23.5533 46.9599 23.0133 46.7799L23.9133 44.3499C24.6333 44.5299 26.1633 44.7999 27.3333 44.7999C28.5033 44.7999 30.0333 44.5299 30.8433 44.3499L31.7433 46.7799C31.1133 46.9599 29.0433 47.4099 27.3333 47.4099ZM19.4133 44.3499L20.9433 43.8099L20.4933 42.3699C21.1233 42.7299 22.6533 43.2699 23.5533 43.5399L22.8333 45.6999C21.4833 45.3399 20.3133 44.7999 19.4133 44.4399V44.3499ZM35.4333 43.8999L34.5333 43.5399L34.7133 42.6399L35.0733 41.5599C35.0733 41.5599 33.3633 42.4599 31.1133 43.0899L29.9433 43.3599V44.0799L27.4233 44.2599L24.9033 44.0799V43.3599C24.9033 43.3599 24.4533 43.3599 23.7333 43.0899C21.4833 42.4599 19.8633 41.5599 19.8633 41.5599L20.1333 42.5499L20.4033 43.4499L19.5033 43.8999L18.4233 44.2599C19.5933 44.7999 21.2133 45.6999 22.7433 46.0599L22.3833 46.9599C22.3833 46.9599 24.1833 47.8599 27.4233 47.8599C30.5733 47.8599 32.4633 46.9599 32.4633 46.9599L32.1033 46.0599C33.6333 45.6999 35.2533 44.7999 36.4233 44.2599L35.4333 43.8999ZM23.4633 5.10989H23.9133L24.0933 4.74989L24.6333 3.57989L25.5333 4.11989L25.9833 4.29989L26.2533 4.02989L27.3333 2.94989L28.4133 4.02989L28.6833 4.29989L29.0433 4.11989L30.0333 3.57989L30.5733 4.74989L30.7533 5.10989H31.5633L31.2033 6.18989C30.0081 5.57325 28.6781 5.26394 27.3333 5.28989C25.9886 5.26394 24.6586 5.57325 23.4633 6.18989C23.4633 5.82989 23.2833 5.46989 23.1033 5.01989H23.4633V5.10989ZM27.3333 5.82989C29.1333 5.82989 30.7533 6.45989 31.5633 7.08989C31.5633 7.08989 31.8333 5.64989 32.6433 4.38989L31.1133 4.47989L30.3033 2.76989L28.7733 3.66989L27.3333 2.13989L25.8933 3.57989L24.3633 2.76989L23.5533 4.56989L22.0233 4.29989C22.9233 5.64989 23.1033 7.08989 23.1033 7.08989C24.0033 6.45989 25.4433 5.82989 27.3333 5.82989ZM51.1833 30.8499C51.1833 30.8499 50.4633 31.9299 49.0233 31.9299C47.2233 31.9299 46.4133 30.8499 46.4133 30.8499C46.4133 30.8499 46.5933 32.2899 45.8733 34.1799C45.1533 36.5199 45.8733 38.2299 45.8733 38.2299H44.4333C42.9033 37.8699 42.6333 36.4299 42.6333 36.4299C42.6333 36.4299 42.6333 41.1099 37.2333 41.1099C37.2333 41.1099 37.7733 40.4799 37.8633 38.5899C38.1333 35.1699 40.4733 34.7199 40.4733 34.7199C40.4733 34.7199 39.2133 34.5399 38.6733 34.0899C37.7733 33.2799 37.8633 32.4699 37.8633 32.4699C39.1074 32.5138 40.3262 32.1117 41.2999 31.336C42.2736 30.5604 42.938 29.4623 43.1733 28.2399C43.1733 28.2399 42.1833 29.1399 40.2033 29.1399H39.6633C38.7633 29.0499 38.0433 28.4199 38.0433 28.4199C40.1133 27.1599 41.6433 24.8199 40.2933 21.3999C39.2133 18.6099 36.7833 16.5399 34.3533 14.9199C33.4533 14.4699 33.0033 13.8399 33.0033 13.3899C33.0033 12.2199 34.7133 12.1299 35.3433 11.4099C36.1533 10.5099 35.6133 8.97989 34.9833 8.16989H35.5233C36.2433 8.16989 37.5033 8.25989 38.4933 9.33989C39.8433 10.6899 39.3933 12.2199 39.3933 12.2199H39.6633L40.2933 12.3999H40.4733C42.4533 12.3999 43.2633 10.3299 43.2633 10.3299C43.2633 10.3299 45.4233 12.8499 42.3633 14.8299C41.8233 15.1899 41.5533 15.5499 41.6433 15.9099V16.0899H41.9133C44.0733 16.7199 45.2433 18.2499 46.5933 20.0499C47.2443 20.864 48.0643 21.5271 48.9967 21.9932C49.929 22.4594 50.9515 22.7176 51.9933 22.7499C51.9933 22.7499 51.3633 24.9099 49.3833 24.9099H49.2933C48.3933 24.9099 47.9433 24.4599 47.9433 24.4599C47.9433 24.4599 47.5833 29.3199 51.1833 30.7599V30.8499ZM49.3833 25.4499C51.8133 25.4499 52.6233 23.0199 52.6233 22.9299L52.8933 22.0299H51.9933C51.7233 22.0299 49.0233 22.0299 47.1333 19.5999L46.9533 19.4199C45.6933 17.7999 44.5233 16.3599 42.4533 15.6399L42.6333 15.4599C43.8033 14.7399 44.4333 13.8399 44.6133 12.7599C44.8833 11.2299 43.8933 9.96989 43.8033 9.87989L43.1733 9.06989L42.7233 10.0599C42.7233 10.0599 42.0033 11.6799 40.4733 11.6799H40.0233C40.1133 10.9599 40.0233 9.87989 39.0333 8.88989C38.5779 8.42254 38.0314 8.0536 37.4277 7.80591C36.8239 7.55823 36.1758 7.43705 35.5233 7.44989H34.8933L33.8133 7.71989L34.4433 8.52989C34.9833 9.15989 35.3433 10.3299 34.8933 10.9599L33.9933 11.4999C33.3633 11.7699 32.3733 12.2199 32.3733 13.2999C32.3733 14.1099 32.9133 14.8299 33.9933 15.4599C36.9633 17.4399 38.8533 19.4199 39.6633 21.5799C40.9233 24.9099 39.3033 26.8899 37.6833 27.8799L36.9633 28.3299L37.5933 28.9599C37.6833 28.9599 38.4933 29.6799 39.5733 29.7699H40.2033C40.8132 29.7675 41.4196 29.6765 42.0033 29.4999C41.9133 29.7699 41.7333 30.0399 41.4633 30.2199C41.0171 30.7294 40.4616 31.1316 39.8383 31.3965C39.2149 31.6614 38.5399 31.7822 37.8633 31.7499H37.3233V32.3799C37.3091 32.8916 37.4359 33.3974 37.6899 33.8419C37.9438 34.2864 38.3152 34.6524 38.7633 34.8999C38.1333 35.5299 37.4133 36.6999 37.2333 38.4999C37.2303 39.2816 37.0454 40.0519 36.6933 40.7499L36.0633 41.7399H37.2333C39.2133 41.7399 40.7433 41.1999 41.7333 40.2099C42.3633 39.4899 42.7233 38.8599 42.9033 38.2299C43.4849 38.7099 44.2194 38.9654 44.9733 38.9499L46.0533 38.8599L46.8633 38.5899L46.5033 37.8699C46.5033 37.8699 45.8733 36.4299 46.5033 34.4499L47.0433 32.1099C47.4933 32.3799 48.1233 32.5599 48.9333 32.5599C50.8233 32.5599 51.6333 31.2099 51.6333 31.1199L52.0833 30.4899L51.3633 30.2199C49.2033 29.3199 48.6633 26.7999 48.5733 25.4499H49.3833Z" fill="#231F20"/>
    <path d="M46.6833 14.92C47.1334 14.92 47.5833 15.1 48.1233 15.64C48.9248 16.5182 50.0064 17.0909 51.1833 17.26C50.9133 17.89 50.1033 18.43 49.3834 18.43L48.7533 18.3399C47.6733 17.9799 47.3133 16.36 45.4233 15.37C45.4233 15.37 45.9633 14.92 46.6833 14.92ZM45.1533 15.82C46.0533 16.36 46.5033 16.99 46.9533 17.62C47.4933 18.16 47.8533 18.7 48.5733 18.9699H49.2934C49.7919 18.9777 50.2828 18.8472 50.7117 18.5931C51.1406 18.3389 51.4907 17.9709 51.7233 17.53L52.1733 16.63H51.2733C51.1833 16.63 49.9233 16.54 48.5733 15.19C48.3341 14.9217 48.0437 14.7039 47.7191 14.5493C47.3946 14.3948 47.0424 14.3066 46.6833 14.29C45.7833 14.29 45.1533 14.74 45.0633 14.83L44.1633 15.37L45.0633 15.91M45.5133 24.46C44.9733 20.14 41.8233 16.9 38.3133 15.01L37.3233 14.56C38.4033 14.74 40.1133 14.74 41.4633 13.57C41.4633 13.57 39.3933 15.1 35.1633 13.66C36.3333 14.47 38.6734 15.46 40.7434 17.26C45.8734 21.76 42.1833 26.26 42.1833 26.26C42.9599 25.5455 43.5101 24.6193 43.766 23.5956C44.0219 22.572 43.9723 21.4957 43.6233 20.5C44.5233 22.12 45.1533 24.1 45.0633 26.53C44.9733 30.13 42.9933 33.1 41.0133 35.53C40.1133 36.7 39.8433 38.23 39.8433 38.23C39.8433 38.23 40.2033 36.88 41.3733 35.53C43.5333 33.1 45.3333 30.4 45.6033 26.53C45.7833 27.25 46.7733 29.2299 48.2133 29.95C48.2133 29.95 46.4133 28.78 45.5133 24.55M17.4333 41.2C12.0333 41.2 12.0333 36.5199 12.0333 36.5199C12.0333 36.5199 11.7633 37.87 10.2333 38.23H8.79335C8.79335 38.23 9.51335 36.52 8.79335 34.18C8.16335 32.29 8.25335 30.85 8.25335 30.85C8.25335 30.85 7.53335 31.93 5.73335 31.93C4.20335 31.93 3.57335 30.85 3.57335 30.85C7.17335 29.32 6.81335 24.55 6.81335 24.55C6.81335 24.55 6.27335 24.82 5.37335 24.91C3.30335 24.91 2.67335 22.75 2.67335 22.75C3.71523 22.7176 4.73768 22.4595 5.67001 21.9933C6.60235 21.5271 7.42236 20.8641 8.07335 20.05C9.42335 18.25 10.5933 16.72 12.7533 16.18H13.0233V15.91C13.1133 15.55 12.8433 15.19 12.3933 14.92C9.33335 12.85 11.4033 10.33 11.4033 10.33C11.4033 10.33 12.3033 12.4 14.1933 12.4H14.3733L15.0033 12.31H15.3633C15.3633 12.31 14.8233 10.69 16.1733 9.33995C16.6327 8.86647 17.2008 8.51239 17.8282 8.30848C18.4557 8.10457 19.1234 8.05702 19.7733 8.16995C19.0533 9.06995 18.5133 10.51 19.3233 11.41C19.9533 12.13 21.6633 12.22 21.6633 13.39C21.6633 13.84 21.2133 14.47 20.4033 14.92C17.8833 16.54 15.4533 18.52 14.3733 21.4C13.1133 24.82 14.5533 27.16 16.6233 28.42C16.6233 28.42 15.9933 29.0499 15.0033 29.1399H14.4633C12.4833 29.1399 11.4933 28.24 11.4933 28.24C11.4933 28.24 11.6733 29.5 12.6633 30.67C13.5633 31.75 14.9133 32.4699 16.8033 32.4699C16.8033 32.4699 16.8033 33.3699 15.9933 34.0899C15.4533 34.5399 14.1933 34.7199 14.1933 34.7199C14.1933 34.7199 16.5333 35.1699 16.8033 38.5899C16.8933 40.4799 17.4333 41.11 17.4333 41.11V41.2ZM17.9733 40.75C17.9733 40.75 17.5233 40.2099 17.4333 38.5899C17.3433 36.6999 16.5333 35.5299 15.9033 34.9899L16.4433 34.5399C17.4333 33.6399 17.4333 32.56 17.3433 32.38V31.8399H16.8033C15.9636 31.8755 15.1307 31.6751 14.399 31.2615C13.6673 30.8479 13.066 30.2377 12.6633 29.5C13.4475 29.7501 14.2735 29.8419 15.0933 29.7699C15.8304 29.6813 16.5219 29.3669 17.0733 28.8699L17.7033 28.33L16.9833 27.88C15.3633 26.89 13.7433 24.91 15.0033 21.58C15.8133 19.42 17.7033 17.44 20.6733 15.46C21.7533 14.83 22.2933 14.11 22.2933 13.39C22.2933 12.22 21.3933 11.77 20.6733 11.5L19.7733 10.96C19.2333 10.33 19.7733 9.15995 20.2233 8.52995L20.8533 7.62995L19.8633 7.53995L19.1433 7.44995C18.3333 7.44995 16.8933 7.62995 15.7233 8.88995C15.3538 9.25038 15.0661 9.68606 14.8798 10.1674C14.6935 10.6488 14.6128 11.1647 14.6433 11.68H14.2833C12.7533 11.68 12.0333 10.15 11.9433 10.06L11.5833 9.15995L10.8633 9.87995C10.8633 9.96995 9.87335 11.23 10.0533 12.76C10.2333 13.84 10.9533 14.74 12.0333 15.46L12.3033 15.64C10.1433 16.36 8.97335 17.8 7.80335 19.42L7.53335 19.6C6.95624 20.3492 6.22212 20.963 5.38253 21.3984C4.54295 21.8337 3.61824 22.08 2.67335 22.12H1.77335L2.04335 23.0199C2.04335 23.0199 2.94335 25.5399 5.28335 25.5399H5.37335L6.09335 25.45C6.09335 26.8 5.55335 29.32 3.30335 30.2199L2.58335 30.4899L2.94335 31.1199C2.94335 31.1199 3.84335 32.56 5.64335 32.56C6.54335 32.56 7.17335 32.38 7.62335 32.11L8.16335 34.45C8.88335 36.43 8.16335 37.8699 8.16335 37.8699L7.80335 38.5899L8.61335 38.86H9.69335C10.4361 38.901 11.1694 38.6778 11.7633 38.23C11.9433 38.86 12.3033 39.49 12.9333 40.21C13.9233 41.2 15.4533 41.7399 17.4333 41.7399H18.6033L17.9733 40.84" fill="#231F20"/>
    <path d="M6.63334 15.64C7.08334 15.1 7.53334 14.92 8.07334 14.92C8.70334 14.92 9.24334 15.37 9.24334 15.37C7.44334 16.27 6.99334 17.98 5.91334 18.34H5.37334C4.56334 18.34 3.75334 17.89 3.57334 17.26C3.57334 17.26 5.01334 17.26 6.54334 15.64H6.63334ZM5.37334 19.06L6.09334 18.97C6.81334 18.7 7.17334 18.16 7.71334 17.62C8.16334 16.99 8.61334 16.36 9.51334 15.82L10.5033 15.37L9.60334 14.83C9.60334 14.83 8.88334 14.29 8.07334 14.29C7.69894 14.2945 7.32958 14.3769 6.98871 14.5318C6.64785 14.6868 6.34293 14.9109 6.09334 15.19C4.74334 16.54 3.57334 16.63 3.48334 16.63H2.58334L2.94334 17.53C3.16345 17.9878 3.50824 18.3742 3.93808 18.6448C4.36792 18.9155 4.86539 19.0594 5.37334 19.06ZM9.60334 26.53C9.51334 24.1 10.1433 22.12 11.1333 20.5C10.7735 21.4873 10.7096 22.5582 10.9494 23.5813C11.1892 24.6045 11.7223 25.5354 12.4833 26.26C12.4833 26.26 8.79334 21.76 13.9233 17.26C15.9933 15.46 18.3333 14.47 19.5033 13.66C15.2733 15.1 13.2033 13.57 13.2033 13.57C14.5533 14.74 16.2633 14.74 17.3433 14.47L16.4433 15.01C12.8433 16.9 9.69334 20.14 9.15334 24.55C8.25334 28.78 6.45334 29.95 6.45334 29.95C7.98334 29.23 8.88334 27.25 9.15334 26.62C9.33334 30.4 11.2233 33.01 13.3833 35.62C14.0432 36.3593 14.5618 37.2135 14.9133 38.14C14.9133 38.14 14.6433 36.7 13.6533 35.44C11.6733 33.1 9.69334 30.04 9.60334 26.53ZM26.1633 17.71V18.61C26.4333 18.16 27.0633 18.25 27.0633 18.25V19.51C27.0633 19.51 27.0633 20.14 26.7933 20.41H28.0533C27.7833 20.14 27.7833 19.51 27.7833 19.51V18.25C27.7833 18.25 28.3233 18.25 28.6833 18.52V17.62H26.1633M25.5333 12.49C25.9833 12.85 26.2533 12.85 26.2533 12.85L26.3433 12.94V12.04L24.9033 11.5C24.9033 11.5 24.9033 11.95 25.6233 12.49M29.1333 12.49C29.7633 11.95 29.7633 11.5 29.7633 11.5L28.3233 12.13V13.03L28.4133 12.85C28.4133 12.85 28.6833 12.85 29.1333 12.49Z" fill="#231F20"/>
    <path d="M27.3333 10.3299L23.7333 8.79991C24.0933 8.07991 25.5333 7.44991 27.3333 7.44991C29.1333 7.44991 30.5733 8.07991 30.9333 8.79991L27.3333 10.2399V10.3299ZM30.0333 14.7399L27.6033 15.9999V10.8699L30.8433 9.78991L29.9433 14.7399H30.0333ZM31.4733 16.0899L32.5533 16.7199L32.8233 16.8999C32.2833 17.0799 31.7433 17.3499 31.3833 17.7999C31.2596 17.8849 31.1395 17.9749 31.0233 18.0699V18.1599L30.7533 18.5199L30.4833 18.9699C29.6733 20.3199 28.4133 21.1299 27.3333 21.1299C26.2533 21.1299 24.9933 20.3199 24.1833 18.9699L23.9133 18.6099V18.5199C23.7513 18.267 23.5708 18.0263 23.3733 17.7999C22.9233 17.3499 22.4733 17.0799 21.8433 16.8999L22.1133 16.7199L23.1933 16.0899L24.3633 15.4599L27.3333 17.0799L30.3933 15.4599L31.4733 16.0899ZM35.7933 20.5899C35.5233 21.2199 35.3433 21.9399 35.3433 22.6599V27.1599C34.4433 26.9799 34.2633 25.9899 34.2633 25.9899V25.7199H34.0833C33.6333 25.7199 33.3633 25.5399 33.1833 25.2699C32.7333 24.8199 32.7333 24.0999 32.7333 24.0999C32.7333 24.0999 32.1933 24.8199 32.7333 25.5399C33.0033 25.8999 33.3633 26.0799 33.8133 26.1699C33.9033 26.7099 34.3533 27.5199 35.3433 27.6099V29.8599H32.6433C31.2933 29.1399 31.8333 27.8799 31.8333 27.8799L32.0133 27.6099L31.7433 27.5199C30.3033 26.9799 30.7533 25.6299 30.7533 25.5399V25.3599L30.5733 25.2699C29.4933 24.7299 29.6733 23.2899 29.6733 23.2899C29.3133 23.5599 29.1333 24.1899 29.4033 24.6399L28.8633 25.1799C28.5375 25.1012 28.2465 24.9177 28.0352 24.6575C27.8238 24.3973 27.7037 24.075 27.6933 23.7399V23.6499L27.5133 23.5599C27.0633 23.3799 26.7033 23.1099 26.6133 22.7499C26.4333 22.3899 26.4333 22.0299 26.5233 21.8499H27.7833C28.5033 21.8499 29.3133 21.4899 30.2133 20.5899H35.7933ZM32.3733 40.2999L32.6433 38.6799V38.4099H33.0033L33.2733 38.4999C33.7233 38.4999 34.0833 38.2299 34.1733 38.0499L34.4433 37.7799L34.2633 37.5099C33.9788 36.991 33.6786 36.4808 33.3633 35.9799C32.9133 35.4399 32.4633 34.7199 31.5633 34.7199H31.3833L31.0233 34.8099L30.1233 34.6299L29.2233 34.8099H29.0433L27.2433 34.7199L27.0633 34.5399L27.4233 34.3599C27.4233 33.0999 26.0733 32.2899 25.4433 32.0199L25.2633 31.6599L24.9033 31.2999L24.5433 31.7499L24.3633 31.9299L21.9333 30.9399L23.4633 32.9199L22.8333 33.8199C22.6533 34.1799 22.8333 34.3599 22.8333 34.3599L23.5533 34.8099L24.1833 34.6299H24.2733V35.2599L23.0133 34.9899L21.7533 35.7099C21.1233 36.1599 21.0333 36.8799 21.3033 37.5099L21.3933 37.7799L21.6633 38.1399L22.0233 37.9599C21.9333 38.4999 22.0233 38.9499 22.2933 39.3099L22.4733 39.5799L22.8333 40.0299L23.2833 39.6699C23.2833 39.4899 23.7333 39.1299 23.8233 38.7699L23.9133 38.4999L23.7333 38.3199L23.9133 37.8699L25.4433 38.2299L25.8033 38.3199L25.9833 38.0499L26.0733 37.8699H26.4333L28.0533 38.0499C28.5033 38.0499 28.7733 38.0499 29.1333 37.8699L29.9433 38.8599L29.4033 40.3899V40.4799C28.5033 40.5699 27.9633 40.8399 27.4233 41.3799C26.6133 40.4799 26.0733 40.4799 23.8233 40.4799C21.1233 40.4799 19.4133 38.9499 19.4133 36.4299V30.3999H35.4333V36.4299C35.4333 38.4099 34.2633 39.8499 32.4633 40.2999H32.3733ZM22.4733 36.8799V37.1499C22.4733 37.3299 21.8433 37.5099 21.8433 37.5099L21.7533 37.2399C21.6464 37.0458 21.6149 36.8192 21.6647 36.6033C21.7145 36.3874 21.8422 36.1975 22.0233 36.0699L23.1033 35.4399L24.1833 35.7099C24.1833 36.0699 24.3633 36.2499 24.3633 36.2499L23.1933 36.0699L22.5633 36.5199C22.3833 36.6099 22.3833 36.7899 22.4733 36.8799ZM32.1933 38.6799L31.8333 40.4799H31.1133L31.4733 38.6799C31.5633 38.2299 30.2133 38.0499 29.4933 37.0599C29.2233 37.4199 28.5933 37.5099 27.9633 37.5099C27.3585 37.5173 26.7547 37.4569 26.1633 37.3299C25.9833 37.3299 25.8033 37.3299 25.6233 37.5999V37.7799L23.6433 37.3299L23.1933 38.1399V38.4999L23.3733 38.5899C23.3733 38.8599 22.9233 39.3099 22.9233 39.3099L22.6533 38.9499C22.3833 38.6799 22.4733 38.2299 22.6533 37.8699L23.3733 36.5199L24.9933 36.7899L24.7233 36.2499C24.4533 35.4399 24.9033 34.4499 24.9933 33.9999C24.9933 34.1799 24.8133 34.1799 24.6333 34.1799H24.1833H24.0933L23.6433 34.4499L23.2833 34.1799V33.8199L24.1833 32.9199L23.2833 31.8399L24.5433 32.5599L24.9033 32.0199V32.4699C25.3533 32.4699 26.5233 33.0999 26.6133 34.5399V34.7199C26.6133 34.8099 26.8833 35.1699 27.2433 35.1699L29.0433 35.3499C29.2233 35.3499 29.5833 35.0799 30.1233 35.0799L31.0233 35.3499L31.4733 35.2599C32.3733 35.2599 32.6433 35.9799 33.0933 36.6099L33.8133 37.6899C33.7233 37.9599 33.5433 38.0499 33.2733 38.0499H33.0933C32.1933 37.8699 32.1033 36.0699 31.5633 35.8899C31.2933 35.8899 31.2933 36.0699 31.2933 36.0699C31.4733 36.6999 31.2933 36.9699 31.5633 37.3299C31.7433 37.6899 32.1033 37.9599 32.2833 38.1399L32.1933 38.5899V38.6799ZM30.4833 40.4799H29.8533L30.3933 38.8599C30.3933 38.5899 30.0333 38.3199 29.8533 38.0499L31.1133 38.6799L30.4833 40.4799ZM22.6533 25.6299V22.7499L23.3733 22.1199L23.7333 22.9299L22.9233 25.6299H22.6533ZM23.1033 26.5299L23.5533 26.9799C23.5199 27.2846 23.4597 27.5858 23.3733 27.8799V28.0599C23.1933 28.0599 22.8333 28.0599 22.4733 27.8799C22.1133 27.7899 21.5733 27.1599 21.7533 26.4399C21.9978 26.2863 22.2756 26.1936 22.5633 26.1699C22.8333 26.1699 23.0133 26.2599 23.1033 26.5299ZM30.5733 27.2499L28.2333 28.7799L23.7333 28.0599C23.8354 27.7082 23.8958 27.3457 23.9133 26.9799H27.6933L29.5833 25.1799L30.1233 25.6299C30.1233 26.0799 30.1233 26.7099 30.4833 27.1599L30.5733 27.2499ZM24.5433 20.6799C24.9933 21.2199 25.5333 21.5799 26.0733 21.7599C26.0733 22.0299 25.8933 22.5699 26.0733 23.0199C26.3433 23.4699 26.7033 23.8299 27.2433 24.0099C27.2433 24.5499 27.6033 25.3599 28.5033 25.7199L27.6033 26.6199H23.7333L23.4633 26.3499V26.2599L24.0033 26.3499C24.1833 26.3499 24.2733 26.3499 24.2733 26.1699C24.2733 25.9899 24.2733 25.8999 24.0933 25.8999L23.3733 25.7199L24.2733 22.9299L23.3733 21.2199L22.1133 22.5699V25.5399L21.2133 25.4499C21.1233 25.4499 20.9433 25.4499 20.9433 25.6299C20.9433 25.7199 20.9433 25.8999 21.1233 25.8999H21.4833L21.3033 26.0799H21.2133V26.2599C20.9433 27.0699 21.4833 27.8799 21.9333 28.2399V28.6899C21.9834 28.7597 22.0523 28.8138 22.132 28.8457C22.2118 28.8776 22.299 28.886 22.3833 28.8699C22.6533 28.8699 22.8333 28.6899 22.8333 28.5099H23.3733L28.3233 29.4099H28.4133L30.7533 27.6099L31.2033 27.9699C31.1133 28.5099 31.1133 29.3199 31.7433 29.9499H19.2333V22.7499C19.2333 22.0299 19.0533 21.3099 18.7833 20.6799H24.6333H24.5433ZM23.8233 9.87991L27.0633 10.9599V15.9999L24.7233 14.7399L23.8233 9.78991V9.87991ZM31.7433 9.24991C31.7433 7.98991 29.6733 6.90991 27.3333 6.90991C24.9933 6.90991 22.8333 7.98991 22.8333 9.24991L22.9233 9.51991L23.8233 14.9199L22.9233 15.3699L20.5833 16.8099L19.7733 17.2599C18.8733 17.8899 18.6933 18.7899 19.2333 19.1499C19.2984 18.7207 19.5165 18.3295 19.8472 18.0483C20.178 17.7671 20.5993 17.615 21.0333 17.6199C21.9333 17.6199 22.4733 18.0699 22.9233 18.6999L23.2833 19.1499L23.7333 19.7799H17.5233C17.9733 20.6799 18.4233 21.6699 18.4233 22.7499V36.4299C18.4233 39.7599 20.9433 41.3799 23.8233 41.3799C25.8933 41.3799 26.1633 41.2899 27.4233 42.4599C28.4133 41.1999 28.6833 41.1999 30.9333 41.1999C33.6333 41.1999 36.2433 39.5799 36.2433 36.2499V22.6599C36.2433 21.5799 36.6933 20.6799 37.1433 19.6899H30.9333L31.3833 19.0599L31.7433 18.6099C32.1933 17.9799 32.8233 17.5299 33.6333 17.5299C34.0674 17.525 34.4887 17.6771 34.8195 17.9583C35.1502 18.2395 35.3683 18.6307 35.4333 19.0599C35.9733 18.6999 35.7933 17.7999 34.8933 17.1699L34.0833 16.7199L31.7433 15.2799L30.8433 14.7399L31.7433 9.42991V9.15991" fill="#231F20"/>
</svg>
