<svg width="24" height="15" viewBox="0 0 24 15" fill="none" xmlns="http://www.w3.org/2000/svg">
<path d="M19.915 8.528C19.527 8.038 19.638 7.82 19.915 7.382C19.92 7.377 23.123 2.951 23.453 1.45L23.455 1.449C23.619 0.902 23.455 0.5 22.662 0.5H20.038C19.37 0.5 19.062 0.845 18.897 1.231C18.897 1.231 17.561 4.429 15.671 6.502C15.061 7.101 14.779 7.293 14.446 7.293C14.282 7.293 14.027 7.101 14.027 6.554V1.449C14.027 0.793 13.84 0.5 13.287 0.5H9.161C8.742 0.5 8.493 0.806 8.493 1.091C8.493 1.713 9.438 1.856 9.536 3.606V7.403C9.536 8.235 9.385 8.388 9.05 8.388C8.158 8.388 5.993 5.177 4.71 1.502C4.451 0.789 4.198 0.501 3.525 0.501H0.9C0.151 0.501 0 0.846 0 1.232C0 1.914 0.892 5.305 4.148 9.785C6.318 12.843 9.374 14.5 12.154 14.5C13.825 14.5 14.029 14.132 14.029 13.499C14.029 10.577 13.878 10.301 14.715 10.301C15.103 10.301 15.771 10.493 17.331 11.968C19.114 13.717 19.407 14.5 20.405 14.5H23.029C23.777 14.5 24.156 14.132 23.938 13.406C23.439 11.879 20.067 8.738 19.915 8.528Z" fill="#A5A9AD"/>
</svg>
