<svg width="22" height="15" viewBox="0 0 22 15" fill="none" xmlns="http://www.w3.org/2000/svg">
<path d="M3.32001 14.5277L9.66498 14.9102C10.5575 14.9627 11.4425 14.9627 12.335 14.9102L18.68 14.5277C20.2625 14.4377 21.5 13.1252 21.5 11.5352V3.46516C21.5 1.87516 20.2625 0.562662 18.68 0.472662L12.335 0.0901619C11.4425 0.0376544 10.5575 0.0376544 9.66498 0.0901619L3.32001 0.472662C1.73751 0.562662 0.5 1.87516 0.5 3.46516V11.5352C0.5 13.1252 1.73751 14.4377 3.32001 14.5277ZM8.30748 3.48768L11.78 5.49016L15.245 7.49265L11.78 9.49513L8.30748 11.4976V3.48768Z" fill="#A5A9AD"/>
</svg>
